# Blender 4.2.2 LTS
# www.blender.org
mtllib bobo.mtl
o Cube
v 1.000000 1.000000 -1.000000
v -1.000000 -1.000000 -1.000000
v -1.000000 1.000000 -1.000000
v -1.000000 -1.000000 -1.000000
v -1.038786 0.994476 0.884297
v -1.000000 -1.000000 1.000000
v 0.839184 -1.092689 -0.898740
v -1.000000 -1.000000 -1.000000
v 0.790497 -0.913348 0.933049
v 0.983804 0.975643 0.986141
v -1.000000 -1.000000 1.000000
vn -0.0000 -0.0000 -1.0000
vn -0.9998 -0.0000 -0.0206
vn -0.9998 -0.0194 -0.0000
vn -0.0523 0.0523 0.9973
vn 0.0497 -0.0569 -0.9971
vn -0.0389 0.0321 -0.9987
vn -0.9940 0.1027 -0.0365
vn -0.9971 0.0763 -0.0072
vt 0.000000 0.000000
s 0
usemtl Material
f 4/1/1 3/1/1 1/1/1
f 4/1/2 5/1/2 3/1/2
f 5/1/3 4/1/3 6/1/3
f 8/1/4 7/1/4 1/1/4
f 10/1/5 11/1/5 5/1/5
f 9/1/6 6/1/6 10/1/6
f 10/1/7 7/1/7 9/1/7
f 1/1/8 7/1/8 10/1/8
l 4 2
l 6 11
